
<svg width="555" height="374" viewBox="0 0 555 374" fill="none" xmlns="http://www.w3.org/2000/svg">
<g filter="url(#filter0_d_0_1)">
<path d="M66.244 252.924C127.913 286.355 204.044 234.548 234.401 204.466C238.101 200.451 253.793 184.724 286.964 153.935C328.429 115.448 371.587 97.2873 431.913 108.002C480.174 116.573 501.654 151.387 506.361 167.722" stroke="black" stroke-opacity="0.92" stroke-width="7"/>
<path d="M114.278 219.399C124.943 231.952 120.711 253.071 104.824 266.569C88.9379 280.067 77.1424 272.566 66.4766 260.013C55.8109 247.46 13.8739 213.151 29.7605 199.653C45.6471 186.155 103.612 206.846 114.278 219.399Z" fill="#BC2ABF"/>
<path d="M113.897 219.723C124.317 231.987 120.265 252.793 104.501 266.188C96.6464 272.861 89.8931 274.279 83.8277 272.578C77.7114 270.864 72.1781 265.951 66.8577 259.689C64.6705 257.115 61.1808 253.636 57.1657 249.633C56.2545 248.724 55.3162 247.789 54.36 246.831C49.1777 241.639 43.4461 235.766 38.546 229.868C33.6387 223.961 29.6006 218.071 27.7671 212.848C26.8519 210.241 26.4975 207.831 26.8335 205.685C27.1674 203.551 28.1877 201.646 30.0842 200.034C33.9079 196.786 40.347 195.542 48.1534 195.779C55.9337 196.015 64.9591 197.717 73.8404 200.238C82.7191 202.758 91.4334 206.089 98.5875 209.569C105.763 213.06 111.302 216.669 113.897 219.723Z" stroke="black" stroke-opacity="0.62"/>
<path d="M294.16 181.871C289.504 166.071 269.518 158.039 249.522 163.933C229.526 169.827 229.337 183.804 233.994 199.604C238.651 215.404 244.372 269.284 264.368 263.391C284.364 257.497 298.817 197.672 294.16 181.871Z" fill="#BC2ABF"/>
<path d="M293.681 182.012C289.131 166.576 269.506 158.564 249.663 164.413C239.777 167.326 234.891 172.199 232.99 178.204C231.073 184.26 232.151 191.581 234.474 199.463C235.429 202.703 236.427 207.528 237.576 213.08C237.837 214.341 238.105 215.638 238.382 216.963C239.886 224.143 241.658 232.155 243.907 239.486C246.159 246.827 248.874 253.433 252.238 257.828C253.918 260.023 255.74 261.639 257.719 262.534C259.687 263.424 261.84 263.615 264.227 262.911C269.04 261.493 273.608 256.788 277.688 250.128C281.753 243.49 285.274 235.007 288.032 226.197C290.789 217.389 292.778 208.274 293.786 200.382C294.798 192.467 294.814 185.855 293.681 182.012Z" stroke="black" stroke-opacity="0.62"/>
<path d="M399.627 126.642C399.639 110.169 382.749 96.8033 361.903 96.7879C341.056 96.7724 336.914 110.123 336.902 126.595C336.89 143.068 327.105 196.36 347.952 196.375C368.799 196.391 399.615 143.114 399.627 126.642Z" fill="#A50EDA"/>
<path d="M399.127 126.641C399.139 110.548 382.589 97.3032 361.902 97.2879C351.596 97.2802 345.529 100.568 342.004 105.788C338.449 111.053 337.408 118.379 337.402 126.596C337.399 129.974 336.989 134.884 336.517 140.534C336.41 141.817 336.3 143.137 336.19 144.486C335.597 151.797 335.026 159.984 335.105 167.651C335.184 175.33 335.915 182.434 337.896 187.603C338.885 190.183 340.173 192.25 341.818 193.669C343.453 195.08 345.464 195.873 347.952 195.875C352.97 195.879 358.685 192.662 364.484 187.431C370.264 182.218 376.045 175.08 381.187 167.413C386.327 159.748 390.817 151.57 394.021 144.288C397.235 136.984 399.124 130.648 399.127 126.641Z" stroke="black" stroke-opacity="0.62"/>
<path d="M525.116 161.246C525.128 144.774 508.238 131.408 487.392 131.392C466.545 131.377 462.403 144.728 462.391 161.2C462.379 177.672 452.594 230.964 473.441 230.98C494.288 230.995 525.104 177.719 525.116 161.246Z" fill="#C8A2C8"/>
<path d="M524.616 161.246C524.628 145.153 508.078 131.908 487.392 131.892C477.085 131.885 471.018 135.173 467.493 140.393C463.938 145.657 462.897 152.983 462.891 161.2C462.888 164.578 462.478 169.489 462.006 175.139C461.899 176.421 461.789 177.742 461.679 179.091C461.086 186.402 460.515 194.589 460.594 202.256C460.673 209.935 461.404 217.039 463.385 222.208C464.374 224.788 465.662 226.855 467.307 228.274C468.942 229.685 470.953 230.478 473.441 230.48C478.459 230.483 484.174 227.266 489.973 222.036C495.753 216.822 501.534 209.685 506.676 202.018C511.816 194.352 516.307 186.175 519.51 178.892C522.724 171.589 524.613 165.253 524.616 161.246Z" stroke="black" stroke-opacity="0.62"/>
<path d="M220.663 197.348C230.464 210.588 224.826 231.375 208.07 243.778C191.315 256.181 180.049 247.907 170.248 234.667C160.447 221.428 120.903 184.387 137.659 171.984C154.414 159.58 210.862 184.108 220.663 197.348Z" fill="#A50EDA"/>
<path d="M220.261 197.645C229.836 210.58 224.4 231.068 207.773 243.376C199.489 249.508 192.656 250.471 186.718 248.368C180.73 246.247 175.539 240.974 170.65 234.37C168.64 231.655 165.391 227.95 161.654 223.687C160.805 222.719 159.932 221.723 159.042 220.703C154.219 215.176 148.894 208.932 144.4 202.719C139.899 196.497 136.265 190.349 134.786 185.015C134.047 182.352 133.855 179.924 134.334 177.805C134.81 175.699 135.956 173.866 137.956 172.385C141.989 169.4 148.497 168.591 156.27 169.35C164.017 170.107 172.908 172.411 181.6 175.52C190.29 178.629 198.762 182.537 205.667 186.489C212.592 190.452 217.877 194.425 220.261 197.645Z" stroke="black" stroke-opacity="0.62"/>
<path d="M318.088 105.751C331.474 115.35 332.478 136.866 320.329 153.807C308.181 170.748 294.921 166.324 281.535 156.725C268.148 147.126 219.156 123.985 231.304 107.044C243.452 90.1028 304.701 96.1519 318.088 105.751Z" fill="#C8A2C8"/>
<path d="M317.796 106.158C330.874 115.536 331.978 136.704 319.923 153.515C313.917 161.891 307.707 164.901 301.411 164.719C295.061 164.535 288.504 161.107 281.826 156.319C279.081 154.35 274.853 151.819 269.989 148.906C268.885 148.245 267.748 147.565 266.588 146.866C260.304 143.083 253.321 138.771 247.14 134.234C240.949 129.691 235.606 124.953 232.563 120.329C231.044 118.02 230.117 115.768 229.924 113.604C229.731 111.453 230.26 109.358 231.71 107.335C234.634 103.258 240.581 100.493 248.213 98.8335C255.819 97.1799 264.988 96.6481 274.215 96.9446C283.44 97.241 292.701 98.3645 300.485 100.01C308.292 101.661 314.54 103.823 317.796 106.158Z" stroke="black" stroke-opacity="0.62"/>
<path d="M473.645 83.435C483.029 96.9728 476.748 117.575 459.616 129.452C442.483 141.328 431.479 132.708 422.095 119.17C412.71 105.633 374.336 67.3809 391.469 55.5043C408.601 43.6277 464.26 69.8973 473.645 83.435Z" fill="#BC2ABF"/>
<path d="M473.234 83.7199C482.402 96.9458 476.332 117.255 459.331 129.041C450.861 134.913 444.001 135.662 438.131 133.376C432.212 131.07 427.187 125.639 422.506 118.886C420.581 116.109 417.449 112.305 413.846 107.928C413.028 106.935 412.186 105.912 411.328 104.865C406.679 99.1902 401.551 92.7835 397.252 86.4341C392.947 80.0752 389.505 73.818 388.192 68.4402C387.537 65.7557 387.42 63.3231 387.965 61.2199C388.506 59.1294 389.708 57.333 391.754 55.9152C395.877 53.0567 402.407 52.4497 410.153 53.4502C417.873 54.4473 426.688 57.0261 435.279 60.4046C443.869 63.7821 452.215 67.9509 458.993 72.1155C465.792 76.2923 470.951 80.4272 473.234 83.7199Z" stroke="black" stroke-opacity="0.62"/>
<path d="M182.699 276.341C186.311 260.269 172.75 243.536 152.41 238.966C132.071 234.396 125.111 246.519 121.5 262.59C117.889 278.662 96.697 328.528 117.036 333.099C137.376 337.669 179.088 292.413 182.699 276.341Z" fill="#C8A2C8"/>
<path d="M182.212 276.232C185.74 260.53 172.484 243.989 152.3 239.454C142.245 237.194 135.606 239.077 131.025 243.401C126.406 247.761 123.789 254.683 121.988 262.7C121.248 265.996 119.774 270.698 118.079 276.108C117.694 277.336 117.298 278.601 116.897 279.893C114.72 286.898 112.374 294.763 110.776 302.262C109.175 309.772 108.336 316.864 109.14 322.341C109.541 325.075 110.347 327.373 111.642 329.118C112.929 330.852 114.718 332.065 117.146 332.611C122.042 333.711 128.321 331.82 135.124 327.983C141.903 324.158 149.104 318.457 155.797 312.098C162.488 305.741 168.656 298.742 173.374 292.336C178.105 285.911 181.333 280.141 182.212 276.232Z" stroke="black" stroke-opacity="0.62"/>
</g>
<mask id="path-18-outside-1_0_1" maskUnits="userSpaceOnUse" x="90.3355" y="126.241" width="355.097" height="103.955" fill="black">
<rect fill="white" x="90.3355" y="126.241" width="355.097" height="103.955"/>
<path d="M93.0293 198.27L102.893 198.159C103.21 201.992 104.389 205.404 106.432 208.395C108.475 211.387 111.242 213.73 114.732 215.427C118.313 217.122 122.478 217.943 127.227 217.89C131.337 217.844 134.755 217.212 137.481 215.994C140.298 214.684 142.379 212.925 143.725 210.718C145.161 208.51 145.863 205.945 145.831 203.022C145.797 200.008 145.039 197.596 143.558 195.786C142.076 193.976 139.958 192.447 137.204 191.199C134.45 189.951 131.194 188.754 127.436 187.609C123.862 186.553 120.24 185.315 116.571 183.894C112.901 182.474 109.457 180.731 106.237 178.667C103.108 176.601 100.569 174.117 98.6179 171.216C96.6663 168.224 95.667 164.627 95.62 160.426C95.574 156.316 96.627 152.468 98.779 148.882C101.021 145.204 104.276 142.244 108.544 140.004C112.902 137.672 118.141 136.472 124.26 136.403C133.849 136.296 141.048 138.819 145.855 143.971C150.662 149.124 153.023 155.993 152.936 164.58L143.073 164.691C142.817 158.208 140.939 153.571 137.437 150.779C133.935 147.986 129.398 146.621 123.827 146.684C119.169 146.736 115.117 147.877 111.672 150.108C108.225 152.247 106.527 155.6 106.578 160.167C106.6 162.176 106.986 163.953 107.734 165.497C108.572 166.949 109.866 168.305 111.615 169.564C113.456 170.822 115.891 172.073 118.919 173.318C122.037 174.471 125.842 175.753 130.333 177.164C133.266 178.044 136.247 179.107 139.275 180.352C142.394 181.596 145.243 183.162 147.822 185.052C150.492 186.94 152.62 189.382 154.206 192.379C155.883 195.283 156.746 198.972 156.796 203.447C156.844 207.74 155.839 211.77 153.78 215.538C151.812 219.213 148.649 222.217 144.291 224.55C140.024 226.881 134.465 228.085 127.616 228.161C121.771 228.227 116.739 227.507 112.521 226.001C108.393 224.403 104.99 222.341 102.313 219.813C99.6358 217.286 97.5513 214.66 96.0594 211.937C94.6578 209.121 93.7149 206.482 93.2307 204.022C92.7464 201.561 92.6793 199.644 93.0293 198.27ZM201.182 227.338C195.337 227.404 189.842 226.049 184.696 223.275C179.55 220.502 175.349 216.484 172.093 211.223C168.928 205.869 167.304 199.539 167.223 192.233C167.141 184.927 168.623 178.608 171.669 173.276C174.805 167.852 178.914 163.65 183.995 160.67C189.077 157.691 194.54 156.168 200.385 156.103C206.23 156.037 211.681 157.438 216.736 160.304C221.883 163.169 226.04 167.279 229.205 172.632C232.37 177.895 233.993 184.179 234.074 191.485C234.156 198.791 232.675 205.156 229.63 210.579C226.584 215.911 222.52 220.021 217.437 222.909C212.446 225.796 207.027 227.273 201.182 227.338ZM201.067 217.064C204.903 217.021 208.5 216.022 211.858 214.066C215.215 212.11 217.923 209.248 219.982 205.481C222.131 201.62 223.175 196.996 223.115 191.608C223.055 186.219 221.908 181.665 219.674 177.945C217.53 174.133 214.758 171.241 211.356 169.27C207.955 167.298 204.336 166.334 200.5 166.377C196.665 166.42 193.023 167.465 189.575 169.514C186.217 171.469 183.464 174.377 181.315 178.237C179.165 182.006 178.121 186.631 178.182 192.11C178.242 197.499 179.344 202.099 181.487 205.911C183.721 209.631 186.584 212.431 190.076 214.31C193.568 216.189 197.232 217.107 201.067 217.064ZM308.9 199.005C308.324 204.675 306.552 209.581 303.584 213.725C300.707 217.776 297.043 220.922 292.592 223.164C288.141 225.315 283.312 226.419 278.106 226.477C272.261 226.543 266.766 225.189 261.62 222.415C256.474 219.641 252.273 215.623 249.017 210.362C245.852 205.008 244.228 198.678 244.146 191.372C244.065 184.066 245.547 177.747 248.593 172.415C251.729 166.991 255.838 162.789 260.919 159.81C266.001 156.83 271.464 155.307 277.309 155.242C282.515 155.184 287.322 156.226 291.73 158.369C296.23 160.511 299.963 163.574 302.931 167.56C305.989 171.545 307.915 176.318 308.708 181.881L298.708 181.993C297.097 176.805 294.357 172.771 290.489 169.891C286.619 166.92 282.265 165.462 277.424 165.516C273.497 165.56 269.81 166.606 266.362 168.654C262.914 170.702 260.161 173.656 258.103 177.515C256.045 181.283 255.045 185.861 255.106 191.25C255.165 196.547 256.266 201.101 258.41 204.914C260.552 208.634 263.324 211.481 266.726 213.452C270.218 215.331 273.973 216.248 277.991 216.203C283.562 216.141 288.067 214.629 291.504 211.668C295.033 208.614 297.543 204.43 299.037 199.116L308.9 199.005ZM335.636 128.558L335.785 141.846L321.538 142.005L321.389 128.717L335.636 128.558ZM323.34 156.097L334.299 155.974L335.066 224.47L324.106 224.593L323.34 156.097ZM379.69 225.341C374.301 225.401 369.307 223.95 364.707 220.987C360.197 217.932 356.543 213.771 353.744 208.505C351.035 203.146 349.642 197.042 349.566 190.193C349.489 183.343 350.79 177.209 353.47 171.79C356.149 166.371 359.801 162.083 364.424 158.925C369.138 155.767 374.418 154.155 380.263 154.09C386.656 154.018 391.514 155.608 394.839 158.859C398.254 162.018 400.585 166.285 401.833 171.66C403.171 177.034 403.878 183.008 403.951 189.584C403.99 193.054 403.667 196.849 402.983 200.967C402.297 204.993 401.062 208.889 399.277 212.654C397.583 216.326 395.151 219.368 391.981 221.778C388.81 224.097 384.713 225.285 379.69 225.341ZM382.313 214.899C386.971 214.847 390.794 213.662 393.782 211.345C396.862 209.027 399.111 205.988 400.53 202.227C401.949 198.375 402.632 194.166 402.581 189.599C402.525 184.576 401.7 180.201 400.105 176.474C398.601 172.655 396.285 169.712 393.156 167.646C390.118 165.488 386.315 164.435 381.749 164.486C374.899 164.563 369.629 167.042 365.939 171.924C362.248 176.715 360.443 182.764 360.525 190.07C360.579 194.91 361.541 199.238 363.41 203.054C365.37 206.776 367.961 209.716 371.182 211.872C374.493 213.936 378.203 214.945 382.313 214.899ZM402.197 155.215L413.156 155.092L413.922 223.588L403.922 223.699C403.922 223.699 403.821 222.879 403.62 221.237C403.511 219.594 403.352 217.677 403.145 215.488C402.938 213.298 402.826 211.472 402.81 210.011L402.197 155.215ZM432.074 127.478L443.033 127.356L444.106 223.25L433.147 223.372L432.074 127.478Z"/>
</mask>
<path d="M93.0293 198.27L102.893 198.159C103.21 201.992 104.389 205.404 106.432 208.395C108.475 211.387 111.242 213.73 114.732 215.427C118.313 217.122 122.478 217.943 127.227 217.89C131.337 217.844 134.755 217.212 137.481 215.994C140.298 214.684 142.379 212.925 143.725 210.718C145.161 208.51 145.863 205.945 145.831 203.022C145.797 200.008 145.039 197.596 143.558 195.786C142.076 193.976 139.958 192.447 137.204 191.199C134.45 189.951 131.194 188.754 127.436 187.609C123.862 186.553 120.24 185.315 116.571 183.894C112.901 182.474 109.457 180.731 106.237 178.667C103.108 176.601 100.569 174.117 98.6179 171.216C96.6663 168.224 95.667 164.627 95.62 160.426C95.574 156.316 96.627 152.468 98.779 148.882C101.021 145.204 104.276 142.244 108.544 140.004C112.902 137.672 118.141 136.472 124.26 136.403C133.849 136.296 141.048 138.819 145.855 143.971C150.662 149.124 153.023 155.993 152.936 164.58L143.073 164.691C142.817 158.208 140.939 153.571 137.437 150.779C133.935 147.986 129.398 146.621 123.827 146.684C119.169 146.736 115.117 147.877 111.672 150.108C108.225 152.247 106.527 155.6 106.578 160.167C106.6 162.176 106.986 163.953 107.734 165.497C108.572 166.949 109.866 168.305 111.615 169.564C113.456 170.822 115.891 172.073 118.919 173.318C122.037 174.471 125.842 175.753 130.333 177.164C133.266 178.044 136.247 179.107 139.275 180.352C142.394 181.596 145.243 183.162 147.822 185.052C150.492 186.94 152.62 189.382 154.206 192.379C155.883 195.283 156.746 198.972 156.796 203.447C156.844 207.74 155.839 211.77 153.78 215.538C151.812 219.213 148.649 222.217 144.291 224.55C140.024 226.881 134.465 228.085 127.616 228.161C121.771 228.227 116.739 227.507 112.521 226.001C108.393 224.403 104.99 222.341 102.313 219.813C99.6358 217.286 97.5513 214.66 96.0594 211.937C94.6578 209.121 93.7149 206.482 93.2307 204.022C92.7464 201.561 92.6793 199.644 93.0293 198.27ZM201.182 227.338C195.337 227.404 189.842 226.049 184.696 223.275C179.55 220.502 175.349 216.484 172.093 211.223C168.928 205.869 167.304 199.539 167.223 192.233C167.141 184.927 168.623 178.608 171.669 173.276C174.805 167.852 178.914 163.65 183.995 160.67C189.077 157.691 194.54 156.168 200.385 156.103C206.23 156.037 211.681 157.438 216.736 160.304C221.883 163.169 226.04 167.279 229.205 172.632C232.37 177.895 233.993 184.179 234.074 191.485C234.156 198.791 232.675 205.156 229.63 210.579C226.584 215.911 222.52 220.021 217.437 222.909C212.446 225.796 207.027 227.273 201.182 227.338ZM201.067 217.064C204.903 217.021 208.5 216.022 211.858 214.066C215.215 212.11 217.923 209.248 219.982 205.481C222.131 201.62 223.175 196.996 223.115 191.608C223.055 186.219 221.908 181.665 219.674 177.945C217.53 174.133 214.758 171.241 211.356 169.27C207.955 167.298 204.336 166.334 200.5 166.377C196.665 166.42 193.023 167.465 189.575 169.514C186.217 171.469 183.464 174.377 181.315 178.237C179.165 182.006 178.121 186.631 178.182 192.11C178.242 197.499 179.344 202.099 181.487 205.911C183.721 209.631 186.584 212.431 190.076 214.31C193.568 216.189 197.232 217.107 201.067 217.064ZM308.9 199.005C308.324 204.675 306.552 209.581 303.584 213.725C300.707 217.776 297.043 220.922 292.592 223.164C288.141 225.315 283.312 226.419 278.106 226.477C272.261 226.543 266.766 225.189 261.62 222.415C256.474 219.641 252.273 215.623 249.017 210.362C245.852 205.008 244.228 198.678 244.146 191.372C244.065 184.066 245.547 177.747 248.593 172.415C251.729 166.991 255.838 162.789 260.919 159.81C266.001 156.83 271.464 155.307 277.309 155.242C282.515 155.184 287.322 156.226 291.73 158.369C296.23 160.511 299.963 163.574 302.931 167.56C305.989 171.545 307.915 176.318 308.708 181.881L298.708 181.993C297.097 176.805 294.357 172.771 290.489 169.891C286.619 166.92 282.265 165.462 277.424 165.516C273.497 165.56 269.81 166.606 266.362 168.654C262.914 170.702 260.161 173.656 258.103 177.515C256.045 181.283 255.045 185.861 255.106 191.25C255.165 196.547 256.266 201.101 258.41 204.914C260.552 208.634 263.324 211.481 266.726 213.452C270.218 215.331 273.973 216.248 277.991 216.203C283.562 216.141 288.067 214.629 291.504 211.668C295.033 208.614 297.543 204.43 299.037 199.116L308.9 199.005ZM335.636 128.558L335.785 141.846L321.538 142.005L321.389 128.717L335.636 128.558ZM323.34 156.097L334.299 155.974L335.066 224.47L324.106 224.593L323.34 156.097ZM379.69 225.341C374.301 225.401 369.307 223.95 364.707 220.987C360.197 217.932 356.543 213.771 353.744 208.505C351.035 203.146 349.642 197.042 349.566 190.193C349.489 183.343 350.79 177.209 353.47 171.79C356.149 166.371 359.801 162.083 364.424 158.925C369.138 155.767 374.418 154.155 380.263 154.09C386.656 154.018 391.514 155.608 394.839 158.859C398.254 162.018 400.585 166.285 401.833 171.66C403.171 177.034 403.878 183.008 403.951 189.584C403.99 193.054 403.667 196.849 402.983 200.967C402.297 204.993 401.062 208.889 399.277 212.654C397.583 216.326 395.151 219.368 391.981 221.778C388.81 224.097 384.713 225.285 379.69 225.341ZM382.313 214.899C386.971 214.847 390.794 213.662 393.782 211.345C396.862 209.027 399.111 205.988 400.53 202.227C401.949 198.375 402.632 194.166 402.581 189.599C402.525 184.576 401.7 180.201 400.105 176.474C398.601 172.655 396.285 169.712 393.156 167.646C390.118 165.488 386.315 164.435 381.749 164.486C374.899 164.563 369.629 167.042 365.939 171.924C362.248 176.715 360.443 182.764 360.525 190.07C360.579 194.91 361.541 199.238 363.41 203.054C365.37 206.776 367.961 209.716 371.182 211.872C374.493 213.936 378.203 214.945 382.313 214.899ZM402.197 155.215L413.156 155.092L413.922 223.588L403.922 223.699C403.922 223.699 403.821 222.879 403.62 221.237C403.511 219.594 403.352 217.677 403.145 215.488C402.938 213.298 402.826 211.472 402.81 210.011L402.197 155.215ZM432.074 127.478L443.033 127.356L444.106 223.25L433.147 223.372L432.074 127.478Z" fill="white"/>
<path d="M93.0293 198.27L93.0181 197.27L92.2499 197.278L92.0602 198.023L93.0293 198.27ZM102.893 198.159L103.889 198.077L103.813 197.149L102.881 197.159L102.893 198.159ZM106.432 208.395L105.607 208.959L105.607 208.959L106.432 208.395ZM114.732 215.427L114.294 216.326L114.304 216.331L114.732 215.427ZM137.481 215.994L137.889 216.907L137.896 216.904L137.903 216.901L137.481 215.994ZM143.725 210.718L142.887 210.173L142.879 210.185L142.871 210.198L143.725 210.718ZM143.558 195.786L144.331 195.153L143.558 195.786ZM137.204 191.199L137.617 190.288L137.204 191.199ZM127.436 187.609L127.728 186.652L127.72 186.65L127.436 187.609ZM116.571 183.894L116.21 184.827L116.21 184.827L116.571 183.894ZM106.237 178.667L105.686 179.501L105.697 179.508L106.237 178.667ZM98.6179 171.216L97.7802 171.763L97.7881 171.774L98.6179 171.216ZM98.779 148.882L97.9251 148.362L97.9216 148.368L98.779 148.882ZM108.544 140.004L109.009 140.89L109.016 140.886L108.544 140.004ZM145.855 143.971L146.586 143.289L146.586 143.289L145.855 143.971ZM152.936 164.58L152.947 165.58L153.926 165.569L153.936 164.59L152.936 164.58ZM143.073 164.691L142.073 164.73L142.112 165.701L143.084 165.69L143.073 164.691ZM137.437 150.779L138.06 149.997L138.06 149.997L137.437 150.779ZM111.672 150.108L112.199 150.958L112.207 150.953L112.215 150.947L111.672 150.108ZM107.734 165.497L106.834 165.933L106.849 165.966L106.867 165.997L107.734 165.497ZM111.615 169.564L111.031 170.375L111.041 170.383L111.051 170.389L111.615 169.564ZM118.919 173.318L118.538 174.243L118.555 174.25L118.572 174.256L118.919 173.318ZM130.333 177.164L130.034 178.118L130.046 178.122L130.333 177.164ZM139.275 180.352L138.894 181.277L138.904 181.281L139.275 180.352ZM147.822 185.052L147.231 185.858L147.238 185.863L147.244 185.868L147.822 185.052ZM154.206 192.379L153.322 192.847L153.331 192.863L153.34 192.879L154.206 192.379ZM153.78 215.538L152.903 215.058L152.899 215.066L153.78 215.538ZM144.291 224.55L143.819 223.668L143.811 223.672L144.291 224.55ZM112.521 226.001L112.16 226.934L112.172 226.939L112.185 226.943L112.521 226.001ZM102.313 219.813L101.626 220.54L101.626 220.54L102.313 219.813ZM96.0594 211.937L95.1642 212.382L95.1729 212.4L95.1824 212.417L96.0594 211.937ZM93.2307 204.022L92.2495 204.215L92.2495 204.215L93.2307 204.022ZM93.0405 199.27L102.904 199.159L102.881 197.159L93.0181 197.27L93.0405 199.27ZM101.896 198.242C102.226 202.236 103.46 205.816 105.607 208.959L107.258 207.831C105.319 204.992 104.193 201.748 103.889 198.077L101.896 198.242ZM105.607 208.959C107.755 212.104 110.66 214.559 114.294 216.326L115.169 214.527C111.824 212.902 109.196 210.669 107.258 207.831L105.607 208.959ZM114.304 216.331C118.047 218.103 122.367 218.945 127.238 218.89L127.216 216.89C122.589 216.942 118.579 216.142 115.16 214.523L114.304 216.331ZM127.238 218.89C131.436 218.843 135 218.198 137.889 216.907L137.074 215.081C134.509 216.227 131.237 216.845 127.216 216.89L127.238 218.89ZM137.903 216.901C140.862 215.525 143.111 213.646 144.579 211.239L142.871 210.198C141.647 212.205 139.734 213.844 137.06 215.088L137.903 216.901ZM144.563 211.263C146.119 208.872 146.865 206.108 146.831 203.011L144.831 203.033C144.862 205.781 144.204 208.148 142.887 210.173L144.563 211.263ZM146.831 203.011C146.795 199.836 145.994 197.184 144.331 195.153L142.784 196.419C144.085 198.009 144.799 200.18 144.831 203.033L146.831 203.011ZM144.331 195.153C142.728 193.194 140.471 191.581 137.617 190.288L136.791 192.11C139.445 193.312 141.424 194.758 142.784 196.419L144.331 195.153ZM137.617 190.288C134.814 189.018 131.515 187.807 127.728 186.652L127.145 188.565C130.872 189.702 134.086 190.884 136.791 192.11L137.617 190.288ZM127.72 186.65C124.173 185.602 120.577 184.373 116.932 182.962L116.21 184.827C119.903 186.257 123.551 187.504 127.153 188.568L127.72 186.65ZM116.932 182.962C113.323 181.565 109.939 179.852 106.777 177.825L105.697 179.508C108.975 181.61 112.48 183.383 116.21 184.827L116.932 182.962ZM106.788 177.832C103.761 175.834 101.319 173.442 99.4478 170.658L97.7881 171.774C99.8176 174.793 102.455 177.368 105.686 179.501L106.788 177.832ZM99.4555 170.67C97.625 167.863 96.6652 164.46 96.6199 160.415L94.6201 160.437C94.6688 164.795 95.7077 168.585 97.7803 171.763L99.4555 170.67ZM96.6199 160.415C96.5761 156.494 97.5779 152.827 99.6365 149.397L97.9216 148.368C95.6761 152.11 94.572 156.139 94.6201 160.437L96.6199 160.415ZM99.6329 149.403C101.77 145.896 104.882 143.056 109.009 140.89L108.08 139.119C103.671 141.433 100.273 144.511 97.9252 148.362L99.6329 149.403ZM109.016 140.886C113.203 138.646 118.275 137.47 124.271 137.403L124.249 135.403C118.007 135.473 112.602 136.699 108.072 139.123L109.016 140.886ZM124.271 137.403C133.685 137.298 140.57 139.773 145.124 144.653L146.586 143.289C141.525 137.865 134.014 135.294 124.249 135.403L124.271 137.403ZM145.124 144.653C149.719 149.579 152.021 156.181 151.936 164.57L153.936 164.59C154.025 155.806 151.605 148.668 146.586 143.289L145.124 144.653ZM152.925 163.58L143.062 163.691L143.084 165.69L152.947 165.58L152.925 163.58ZM144.072 164.651C143.811 158.012 141.876 153.04 138.06 149.997L136.813 151.561C140.001 154.102 141.824 158.404 142.073 164.73L144.072 164.651ZM138.06 149.997C134.337 147.029 129.559 145.62 123.816 145.684L123.838 147.684C129.237 147.623 133.532 148.944 136.813 151.561L138.06 149.997ZM123.816 145.684C118.995 145.738 114.753 146.922 111.128 149.269L112.215 150.947C115.482 148.833 119.343 147.734 123.838 147.684L123.816 145.684ZM111.144 149.258C107.358 151.608 105.523 155.314 105.578 160.178L107.578 160.155C107.53 155.886 109.091 152.886 112.199 150.958L111.144 149.258ZM105.578 160.178C105.602 162.309 106.011 164.235 106.834 165.933L108.634 165.061C107.96 163.67 107.599 162.042 107.578 160.155L105.578 160.178ZM106.867 165.997C107.794 167.601 109.198 169.056 111.031 170.375L112.199 168.752C110.533 167.553 109.35 166.297 108.6 164.997L106.867 165.997ZM111.051 170.389C112.97 171.701 115.473 172.983 118.538 174.243L119.299 172.393C116.308 171.164 113.943 169.943 112.18 168.738L111.051 170.389ZM118.572 174.256C121.711 175.416 125.532 176.704 130.034 178.118L130.633 176.21C126.152 174.802 122.363 173.525 119.265 172.38L118.572 174.256ZM130.046 178.122C132.945 178.992 135.895 180.044 138.894 181.277L139.655 179.427C136.599 178.171 133.587 177.097 130.621 176.206L130.046 178.122ZM138.904 181.281C141.949 182.495 144.724 184.021 147.231 185.858L148.413 184.245C145.763 182.303 142.839 180.697 139.645 179.423L138.904 181.281ZM147.244 185.868C149.782 187.662 151.807 189.983 153.322 192.847L155.09 191.911C153.433 188.781 151.202 186.217 148.399 184.235L147.244 185.868ZM153.34 192.879C154.907 195.592 155.748 199.1 155.796 203.459L157.796 203.436C157.745 198.845 156.859 194.973 155.072 191.879L153.34 192.879ZM155.796 203.459C155.842 207.58 154.879 211.441 152.903 215.058L154.658 216.017C156.799 212.099 157.846 207.9 157.796 203.436L155.796 203.459ZM152.899 215.066C151.04 218.537 148.036 221.411 143.819 223.668L144.762 225.431C149.262 223.024 152.584 219.89 154.662 216.01L152.899 215.066ZM143.811 223.672C139.735 225.899 134.354 227.086 127.605 227.162L127.627 229.161C134.577 229.084 140.313 227.862 144.77 225.427L143.811 223.672ZM127.605 227.162C121.844 227.226 116.936 226.515 112.857 225.059L112.185 226.943C116.543 228.498 121.698 229.228 127.627 229.161L127.605 227.162ZM112.882 225.069C108.851 223.508 105.565 221.509 102.999 219.086L101.626 220.54C104.415 223.173 107.935 225.298 112.16 226.934L112.882 225.069ZM102.999 219.086C100.385 216.617 98.3698 214.073 96.9364 211.456L95.1824 212.417C96.7328 215.247 98.887 217.954 101.626 220.54L102.999 219.086ZM96.9546 211.491C95.5832 208.736 94.6751 206.183 94.2118 203.829L92.2495 204.215C92.7547 206.782 93.7324 209.506 95.1642 212.382L96.9546 211.491ZM94.2118 203.829C93.7375 201.418 93.7032 199.675 93.9983 198.516L92.0602 198.023C91.6554 199.612 91.7554 201.704 92.2495 204.215L94.2118 203.829ZM184.696 223.275L184.221 224.156L184.221 224.156L184.696 223.275ZM172.093 211.223L171.233 211.732L171.238 211.74L171.243 211.749L172.093 211.223ZM171.669 173.276L170.803 172.776L170.8 172.78L171.669 173.276ZM183.995 160.67L184.501 161.533L184.501 161.533L183.995 160.67ZM216.736 160.304L216.243 161.174L216.25 161.178L216.736 160.304ZM229.205 172.632L228.344 173.141L228.348 173.148L229.205 172.632ZM229.63 210.579L230.498 211.075L230.502 211.068L229.63 210.579ZM217.437 222.909L216.943 222.04L216.936 222.043L217.437 222.909ZM211.858 214.066L212.361 214.93L212.361 214.93L211.858 214.066ZM219.982 205.481L219.108 204.994L219.105 205.001L219.982 205.481ZM219.674 177.945L218.802 178.435L218.809 178.448L218.817 178.46L219.674 177.945ZM211.356 169.27L210.855 170.135L210.855 170.135L211.356 169.27ZM189.575 169.514L190.078 170.378L190.085 170.373L189.575 169.514ZM181.315 178.237L182.183 178.733L182.189 178.724L181.315 178.237ZM181.487 205.911L180.616 206.401L180.623 206.414L180.63 206.426L181.487 205.911ZM190.076 214.31L189.602 215.19L189.602 215.19L190.076 214.31ZM201.171 226.338C195.496 226.402 190.167 225.089 185.17 222.395L184.221 224.156C189.517 227.01 195.179 228.405 201.194 228.338L201.171 226.338ZM185.17 222.395C180.188 219.709 176.113 215.818 172.944 210.697L171.243 211.749C174.585 217.15 178.912 221.294 184.221 224.156L185.17 222.395ZM172.954 210.714C169.892 205.536 168.303 199.384 168.222 192.222L166.223 192.244C166.306 199.695 167.963 206.203 171.233 211.732L172.954 210.714ZM168.222 192.222C168.142 185.059 169.595 178.922 172.537 173.772L170.8 172.78C167.651 178.293 166.139 184.794 166.223 192.244L168.222 192.222ZM172.534 173.777C175.59 168.492 179.578 164.42 184.501 161.533L183.49 159.808C178.249 162.881 174.02 167.212 170.803 172.776L172.534 173.777ZM184.501 161.533C189.434 158.641 194.727 157.166 200.397 157.103L200.374 155.103C194.354 155.17 188.72 156.741 183.49 159.808L184.501 161.533ZM200.397 157.103C206.066 157.039 211.342 158.395 216.243 161.174L217.23 159.434C212.019 156.48 206.395 155.035 200.374 155.103L200.397 157.103ZM216.25 161.178C221.233 163.952 225.264 167.931 228.344 173.141L230.066 172.123C226.815 166.626 222.533 162.387 217.223 159.43L216.25 161.178ZM228.348 173.148C231.405 178.231 232.994 184.334 233.074 191.496L235.074 191.474C234.991 184.024 233.334 177.558 230.062 172.117L228.348 173.148ZM233.074 191.496C233.155 198.658 231.703 204.844 228.758 210.089L230.502 211.068C233.646 205.468 235.158 198.924 235.074 191.474L233.074 191.496ZM228.761 210.083C225.8 215.267 221.862 219.244 216.943 222.04L217.931 223.779C223.178 220.797 227.368 216.554 230.498 211.075L228.761 210.083ZM216.936 222.043C212.096 224.843 206.847 226.275 201.171 226.338L201.194 228.338C207.208 228.271 212.795 226.749 217.938 223.775L216.936 222.043ZM201.079 218.064C205.09 218.019 208.856 216.972 212.361 214.93L211.354 213.202C208.144 215.072 204.717 216.023 201.056 216.064L201.079 218.064ZM212.361 214.93C215.892 212.873 218.723 209.871 220.86 205.96L219.105 205.001C217.124 208.626 214.538 211.347 211.354 213.202L212.361 214.93ZM220.856 205.967C223.106 201.924 224.177 197.121 224.115 191.596L222.115 191.619C222.174 196.871 221.156 201.316 219.108 204.994L220.856 205.967ZM224.115 191.596C224.053 186.073 222.876 181.335 220.531 177.43L218.817 178.46C220.939 181.995 222.056 186.365 222.115 191.619L224.115 191.596ZM220.546 177.455C218.325 173.505 215.431 170.475 211.858 168.405L210.855 170.135C214.085 172.007 216.736 174.761 218.802 178.435L220.546 177.455ZM211.858 168.405C208.305 166.345 204.509 165.332 200.489 165.377L200.511 167.377C204.163 167.336 207.605 168.251 210.855 170.135L211.858 168.405ZM200.489 165.377C196.469 165.422 192.656 166.52 189.064 168.654L190.085 170.373C193.389 168.411 196.86 167.418 200.511 167.377L200.489 165.377ZM189.071 168.649C185.538 170.707 182.665 173.756 180.441 177.751L182.189 178.724C184.262 174.999 186.896 172.231 190.078 170.378L189.071 168.649ZM180.446 177.742C178.188 181.701 177.119 186.51 177.182 192.122L179.182 192.099C179.122 186.751 180.142 182.312 182.183 178.733L180.446 177.742ZM177.182 192.122C177.244 197.639 178.373 202.413 180.616 206.401L182.359 205.421C180.315 201.786 179.241 197.358 179.182 192.099L177.182 192.122ZM180.63 206.426C182.948 210.285 185.937 213.218 189.602 215.19L190.55 213.429C187.231 211.643 184.495 208.977 182.345 205.396L180.63 206.426ZM189.602 215.19C193.238 217.147 197.068 218.109 201.079 218.064L201.056 216.064C197.396 216.105 193.898 215.231 190.55 213.429L189.602 215.19ZM308.9 199.005L309.895 199.106L310.008 197.993L308.889 198.005L308.9 199.005ZM303.584 213.725L302.771 213.142L302.769 213.145L303.584 213.725ZM292.592 223.164L293.027 224.065L293.035 224.061L293.042 224.057L292.592 223.164ZM261.62 222.415L261.145 223.295L261.145 223.295L261.62 222.415ZM249.017 210.362L248.156 210.871L248.162 210.88L248.167 210.888L249.017 210.362ZM248.593 172.415L247.727 171.915L247.724 171.919L248.593 172.415ZM260.919 159.81L261.425 160.672L261.425 160.672L260.919 159.81ZM291.73 158.369L291.293 159.268L291.3 159.272L291.73 158.369ZM302.931 167.56L302.129 168.157L302.133 168.163L302.137 168.169L302.931 167.56ZM308.708 181.881L308.719 182.881L309.859 182.868L309.698 181.74L308.708 181.881ZM298.708 181.993L297.753 182.29L297.974 183.001L298.719 182.993L298.708 181.993ZM290.489 169.891L289.88 170.685L289.886 170.689L289.892 170.694L290.489 169.891ZM266.362 168.654L266.872 169.514L266.872 169.514L266.362 168.654ZM258.103 177.515L258.981 177.995L258.986 177.986L258.103 177.515ZM258.41 204.914L257.538 205.404L257.543 205.412L258.41 204.914ZM266.726 213.452L266.224 214.317L266.238 214.325L266.252 214.333L266.726 213.452ZM291.504 211.668L292.157 212.425L292.159 212.424L291.504 211.668ZM299.037 199.116L299.025 198.116L298.276 198.124L298.074 198.845L299.037 199.116ZM307.905 198.904C307.345 204.421 305.626 209.157 302.771 213.142L304.397 214.307C307.478 210.005 309.303 204.928 309.895 199.106L307.905 198.904ZM302.769 213.145C299.986 217.063 296.448 220.102 292.142 222.271L293.042 224.057C297.638 221.742 301.427 218.488 304.4 214.304L302.769 213.145ZM292.157 222.264C287.845 224.347 283.162 225.421 278.095 225.478L278.118 227.477C283.462 227.418 288.436 226.282 293.027 224.065L292.157 222.264ZM278.095 225.478C272.42 225.541 267.091 224.228 262.094 221.534L261.145 223.295C266.441 226.149 272.103 227.545 278.118 227.477L278.095 225.478ZM262.094 221.534C257.112 218.848 253.037 214.957 249.868 209.836L248.167 210.888C251.509 216.289 255.836 220.433 261.145 223.295L262.094 221.534ZM249.878 209.853C246.816 204.675 245.227 198.523 245.146 191.361L243.146 191.383C243.23 198.834 244.887 205.342 248.156 210.871L249.878 209.853ZM245.146 191.361C245.066 184.199 246.519 178.062 249.461 172.911L247.724 171.919C244.575 177.432 243.063 183.933 243.146 191.383L245.146 191.361ZM249.458 172.916C252.514 167.632 256.502 163.559 261.425 160.672L260.413 158.947C255.173 162.02 250.944 166.351 247.727 171.915L249.458 172.916ZM261.425 160.672C266.358 157.78 271.651 156.305 277.32 156.242L277.298 154.242C271.278 154.309 265.644 155.88 260.413 158.947L261.425 160.672ZM277.32 156.242C282.381 156.185 287.033 157.197 291.293 159.268L292.167 157.469C287.611 155.255 282.649 154.182 277.298 154.242L277.32 156.242ZM291.3 159.272C295.653 161.344 299.259 164.303 302.129 168.157L303.733 166.963C300.668 162.846 296.806 159.677 292.16 157.466L291.3 159.272ZM302.137 168.169C305.08 172.002 306.947 176.609 307.718 182.022L309.698 181.74C308.884 176.028 306.899 171.088 303.724 166.951L302.137 168.169ZM308.697 180.881L298.697 180.993L298.719 182.993L308.719 182.881L308.697 180.881ZM299.663 181.697C297.998 176.333 295.146 172.111 291.086 169.089L289.892 170.694C293.569 173.431 296.197 177.277 297.753 182.29L299.663 181.697ZM291.098 169.098C287.052 165.992 282.479 164.46 277.413 164.516L277.435 166.516C282.05 166.465 286.187 167.849 289.88 170.685L291.098 169.098ZM277.413 164.516C273.306 164.562 269.447 165.659 265.851 167.794L266.872 169.514C270.172 167.554 273.688 166.558 277.435 166.516L277.413 164.516ZM265.851 167.794C262.232 169.944 259.356 173.039 257.221 177.045L258.986 177.986C260.965 174.273 263.596 171.46 266.872 169.514L265.851 167.794ZM257.226 177.036C255.066 180.988 254.044 185.744 254.106 191.261L256.106 191.238C256.047 185.978 257.023 181.579 258.981 177.995L257.226 177.036ZM254.106 191.261C254.167 196.69 255.297 201.417 257.538 205.404L259.282 204.423C257.236 200.785 256.163 196.403 256.106 191.238L254.106 191.261ZM257.543 205.412C259.765 209.271 262.657 212.25 266.224 214.317L267.227 212.587C263.991 210.711 261.34 207.998 259.276 204.415L257.543 205.412ZM266.252 214.333C269.895 216.293 273.817 217.25 278.003 217.203L277.98 215.203C274.129 215.246 270.541 214.369 267.2 212.571L266.252 214.333ZM278.003 217.203C283.754 217.139 288.503 215.573 292.157 212.425L290.852 210.91C287.631 213.685 283.371 215.143 277.98 215.203L278.003 217.203ZM292.159 212.424C295.86 209.22 298.463 204.854 299.999 199.386L298.074 198.845C296.624 204.006 294.205 208.008 290.85 210.912L292.159 212.424ZM299.048 200.115L308.911 200.005L308.889 198.005L299.025 198.116L299.048 200.115ZM335.636 128.558L336.636 128.546L336.625 127.546L335.625 127.558L335.636 128.558ZM335.785 141.846L335.796 142.846L336.796 142.835L336.785 141.835L335.785 141.846ZM321.538 142.005L320.538 142.016L320.549 143.016L321.549 143.005L321.538 142.005ZM321.389 128.717L321.378 127.717L320.378 127.728L320.389 128.728L321.389 128.717ZM323.34 156.097L323.329 155.097L322.329 155.108L322.34 156.108L323.34 156.097ZM334.299 155.974L335.299 155.963L335.288 154.963L334.288 154.974L334.299 155.974ZM335.066 224.47L335.077 225.47L336.077 225.459L336.065 224.459L335.066 224.47ZM324.106 224.593L323.106 224.604L323.117 225.604L324.117 225.593L324.106 224.593ZM334.636 128.569L334.785 141.857L336.785 141.835L336.636 128.546L334.636 128.569ZM335.774 140.846L321.527 141.005L321.549 143.005L335.796 142.846L335.774 140.846ZM322.538 141.994L322.389 128.706L320.389 128.728L320.538 142.016L322.538 141.994ZM321.4 129.717L335.648 129.558L335.625 127.558L321.378 127.717L321.4 129.717ZM323.351 157.097L334.31 156.974L334.288 154.974L323.329 155.097L323.351 157.097ZM333.299 155.985L334.066 224.481L336.065 224.459L335.299 155.963L333.299 155.985ZM335.054 223.47L324.095 223.593L324.117 225.593L335.077 225.47L335.054 223.47ZM325.106 224.581L324.34 156.086L322.34 156.108L323.106 224.604L325.106 224.581ZM364.707 220.987L364.146 221.815L364.156 221.822L364.166 221.828L364.707 220.987ZM353.744 208.505L352.851 208.956L352.856 208.965L352.861 208.974L353.744 208.505ZM364.424 158.925L363.867 158.095L363.86 158.1L364.424 158.925ZM394.839 158.859L394.14 159.574L394.15 159.584L394.16 159.593L394.839 158.859ZM401.833 171.66L400.858 171.886L400.86 171.894L400.862 171.901L401.833 171.66ZM402.983 200.967L403.968 201.134L403.969 201.131L402.983 200.967ZM399.277 212.654L398.373 212.225L398.369 212.235L399.277 212.654ZM391.981 221.778L392.571 222.585L392.579 222.58L392.586 222.574L391.981 221.778ZM393.782 211.345L393.181 210.546L393.175 210.551L393.169 210.555L393.782 211.345ZM400.53 202.227L401.466 202.58L401.469 202.573L400.53 202.227ZM400.105 176.474L399.175 176.841L399.18 176.854L399.186 176.868L400.105 176.474ZM393.156 167.646L392.577 168.462L392.591 168.472L392.605 168.481L393.156 167.646ZM365.939 171.924L366.731 172.535L366.737 172.527L365.939 171.924ZM363.41 203.054L362.512 203.494L362.519 203.507L362.525 203.519L363.41 203.054ZM371.182 211.872L370.625 212.703L370.639 212.712L370.653 212.721L371.182 211.872ZM402.197 155.215L402.185 154.215L401.185 154.226L401.197 155.226L402.197 155.215ZM413.156 155.092L414.156 155.081L414.145 154.081L413.145 154.092L413.156 155.092ZM413.922 223.588L413.933 224.588L414.933 224.576L414.922 223.576L413.922 223.588ZM403.922 223.699L402.929 223.821L403.038 224.709L403.933 224.699L403.922 223.699ZM403.62 221.237L402.623 221.303L402.624 221.331L402.628 221.358L403.62 221.237ZM403.145 215.488L402.149 215.582L403.145 215.488ZM379.679 224.341C374.489 224.399 369.687 223.005 365.249 220.146L364.166 221.828C368.928 224.895 374.114 226.403 379.701 226.341L379.679 224.341ZM365.268 220.159C360.906 217.204 357.357 213.172 354.627 208.036L352.861 208.974C355.729 214.371 359.489 218.66 364.146 221.815L365.268 220.159ZM354.636 208.054C352.006 202.85 350.641 196.9 350.566 190.181L348.566 190.204C348.644 197.185 350.064 203.443 352.851 208.956L354.636 208.054ZM350.566 190.181C350.49 183.468 351.765 177.493 354.366 172.233L352.574 171.347C349.815 176.925 348.487 183.218 348.566 190.204L350.566 190.181ZM354.366 172.233C356.976 166.955 360.518 162.804 364.988 159.751L363.86 158.1C359.084 161.361 355.323 165.786 352.574 171.347L354.366 172.233ZM364.98 159.756C369.528 156.709 374.617 155.153 380.274 155.09L380.251 153.09C374.218 153.157 368.748 154.825 363.867 158.095L364.98 159.756ZM380.274 155.09C386.503 155.02 391.067 156.569 394.14 159.574L395.538 158.144C391.962 154.647 386.808 153.017 380.251 153.09L380.274 155.09ZM394.16 159.593C397.402 162.592 399.648 166.669 400.858 171.886L402.807 171.434C401.522 165.9 399.105 161.443 395.518 158.125L394.16 159.593ZM400.862 171.901C402.179 177.187 402.878 183.083 402.951 189.595L404.951 189.573C404.877 182.934 404.164 176.88 402.803 171.418L400.862 171.901ZM402.951 189.595C402.989 192.997 402.673 196.731 401.996 200.803L403.969 201.131C404.661 196.966 404.991 193.112 404.951 189.573L402.951 189.595ZM401.997 200.799C401.327 204.733 400.12 208.542 398.373 212.225L400.181 213.082C402.004 209.236 403.267 205.253 403.968 201.134L401.997 200.799ZM398.369 212.235C396.742 215.761 394.413 218.672 391.375 220.982L392.586 222.574C395.888 220.063 398.423 216.891 400.185 213.073L398.369 212.235ZM391.39 220.971C388.429 223.136 384.551 224.286 379.679 224.341L379.701 226.341C384.874 226.283 389.19 225.058 392.571 222.585L391.39 220.971ZM382.324 215.899C387.148 215.845 391.197 214.614 394.395 212.135L393.169 210.555C390.39 212.71 386.793 213.849 382.302 213.899L382.324 215.899ZM394.383 212.144C397.621 209.707 399.983 206.51 401.466 202.58L399.595 201.874C398.239 205.465 396.102 208.347 393.181 210.546L394.383 212.144ZM401.469 202.573C402.934 198.594 403.634 194.263 403.581 189.588L401.581 189.611C401.631 194.069 400.964 198.156 399.592 201.882L401.469 202.573ZM403.581 189.588C403.524 184.464 402.682 179.954 401.025 176.081L399.186 176.868C400.718 180.449 401.526 184.689 401.581 189.611L403.581 189.588ZM401.036 176.108C399.464 172.116 397.024 169.002 393.707 166.812L392.605 168.481C395.546 170.423 397.739 173.194 399.175 176.841L401.036 176.108ZM393.735 166.831C390.489 164.525 386.467 163.433 381.738 163.486L381.76 165.486C386.164 165.437 389.747 166.451 392.577 168.462L393.735 166.831ZM381.738 163.486C374.621 163.566 369.042 166.16 365.141 171.321L366.737 172.527C370.217 167.924 375.178 165.559 381.76 165.486L381.738 163.486ZM365.147 171.314C361.292 176.318 359.441 182.599 359.525 190.081L361.525 190.059C361.445 182.929 363.204 177.113 366.731 172.535L365.147 171.314ZM359.525 190.081C359.581 195.05 360.569 199.527 362.512 203.494L364.308 202.613C362.513 198.949 361.578 194.771 361.525 190.059L359.525 190.081ZM362.525 203.519C364.556 207.377 367.254 210.447 370.625 212.703L371.738 211.041C368.667 208.985 366.184 206.176 364.295 202.588L362.525 203.519ZM370.653 212.721C374.135 214.891 378.034 215.947 382.324 215.899L382.302 213.899C378.372 213.943 374.851 212.981 371.71 211.023L370.653 212.721ZM402.208 156.214L413.167 156.092L413.145 154.092L402.185 154.215L402.208 156.214ZM412.156 155.103L412.922 223.599L414.922 223.576L414.156 155.081L412.156 155.103ZM413.911 222.588L403.911 222.7L403.933 224.699L413.933 224.588L413.911 222.588ZM403.922 223.699C404.915 223.578 404.915 223.578 404.915 223.578C404.915 223.578 404.915 223.578 404.915 223.578C404.915 223.578 404.915 223.578 404.915 223.578C404.915 223.578 404.915 223.578 404.915 223.578C404.915 223.578 404.914 223.578 404.914 223.578C404.914 223.578 404.914 223.578 404.914 223.578C404.914 223.577 404.914 223.578 404.914 223.577C404.914 223.577 404.914 223.577 404.914 223.577C404.914 223.576 404.914 223.576 404.914 223.576C404.914 223.576 404.914 223.576 404.914 223.576C404.914 223.576 404.914 223.576 404.914 223.576C404.914 223.575 404.914 223.574 404.914 223.574C404.914 223.573 404.914 223.573 404.914 223.573C404.914 223.57 404.914 223.571 404.913 223.568C404.913 223.566 404.913 223.568 404.913 223.566C404.913 223.563 404.913 223.566 404.913 223.563C404.912 223.56 404.912 223.56 404.912 223.556C404.912 223.555 404.91 223.542 404.91 223.539C404.904 223.49 404.911 223.547 404.904 223.491C404.895 223.418 404.905 223.504 404.896 223.424C404.888 223.364 404.898 223.444 404.891 223.383C404.887 223.35 404.889 223.372 404.885 223.337C404.875 223.255 404.883 223.321 404.872 223.232C404.871 223.226 404.872 223.23 404.871 223.224C404.871 223.223 404.871 223.222 404.871 223.221C404.871 223.219 404.87 223.218 404.87 223.217C404.869 223.206 404.871 223.221 404.869 223.21C404.869 223.208 404.869 223.204 404.869 223.202C404.868 223.2 404.865 223.175 404.865 223.171C404.864 223.162 404.865 223.173 404.864 223.164C404.863 223.159 404.863 223.16 404.863 223.156C404.86 223.129 404.864 223.166 404.861 223.14C404.86 223.135 404.857 223.112 404.857 223.107C404.852 223.071 404.853 223.074 404.848 223.037C404.838 222.95 404.85 223.05 404.839 222.962C404.814 222.76 404.782 222.498 404.745 222.193C404.733 222.097 404.75 222.231 404.738 222.134C404.737 222.132 404.737 222.129 404.737 222.127C404.737 222.124 404.736 222.122 404.736 222.12C404.736 222.117 404.735 222.115 404.735 222.112C404.735 222.11 404.734 222.107 404.734 222.105C404.734 222.104 404.732 222.09 404.732 222.09C404.732 222.087 404.732 222.085 404.731 222.082C404.731 222.08 404.731 222.077 404.73 222.075C404.73 222.073 404.716 221.956 404.715 221.952C404.709 221.9 404.706 221.878 404.7 221.825C404.694 221.779 404.697 221.805 404.692 221.759C404.692 221.758 404.684 221.694 404.684 221.692C404.679 221.653 404.68 221.665 404.675 221.624C404.668 221.564 404.674 221.616 404.667 221.555C404.663 221.527 404.653 221.444 404.649 221.413C404.64 221.337 404.65 221.417 404.641 221.341C404.64 221.34 404.632 221.268 404.631 221.267C404.629 221.249 404.624 221.209 404.622 221.192C404.611 221.1 404.624 221.207 404.613 221.115L402.628 221.358C402.652 221.554 402.678 221.766 402.698 221.935C402.726 222.161 402.735 222.235 402.76 222.436C402.769 222.512 402.778 222.587 402.787 222.657C402.796 222.735 402.79 222.684 402.799 222.76C402.802 222.778 402.8 222.768 402.803 222.786C402.805 222.803 402.802 222.781 402.804 222.798C402.804 222.8 402.805 222.802 402.805 222.804C402.805 222.806 402.805 222.808 402.806 222.81C402.807 222.825 402.81 222.845 402.812 222.859C402.825 222.971 402.843 223.119 402.854 223.205C402.873 223.362 402.904 223.613 402.911 223.667C402.915 223.704 402.923 223.771 402.925 223.783C402.927 223.798 402.927 223.802 402.928 223.811C402.929 223.815 402.929 223.816 402.929 223.819C402.929 223.819 402.929 223.82 402.929 223.82C402.929 223.821 402.929 223.821 402.929 223.821C402.929 223.821 402.929 223.821 402.929 223.821C402.929 223.821 402.929 223.821 402.929 223.821C402.929 223.821 402.929 223.821 403.922 223.699ZM404.618 221.17C404.508 219.516 404.348 217.59 404.141 215.393L402.149 215.582C402.356 217.765 402.514 219.672 402.623 221.303L404.618 221.17ZM404.141 215.393C403.935 213.219 403.826 211.423 403.81 210L401.81 210.022C401.827 211.521 401.941 213.377 402.149 215.582L404.141 215.393ZM403.81 210L403.196 155.203L401.197 155.226L401.81 210.022L403.81 210ZM432.074 127.478L432.063 126.479L431.063 126.49L431.074 127.49L432.074 127.478ZM443.033 127.356L444.033 127.345L444.022 126.345L443.022 126.356L443.033 127.356ZM444.106 223.25L444.118 224.25L445.118 224.239L445.106 223.239L444.106 223.25ZM433.147 223.372L432.147 223.384L432.158 224.384L433.158 224.372L433.147 223.372ZM432.085 128.478L443.045 128.356L443.022 126.356L432.063 126.479L432.085 128.478ZM442.033 127.367L443.107 223.261L445.106 223.239L444.033 127.345L442.033 127.367ZM444.095 222.25L433.136 222.373L433.158 224.372L444.118 224.25L444.095 222.25ZM434.147 223.361L433.074 127.467L431.074 127.49L432.147 223.384L434.147 223.361Z" fill="black" mask="url(#path-18-outside-1_0_1)"/>
<defs>
<filter id="filter0_d_0_1" x="22.2089" y="52.5009" width="506.907" height="288.92" filterUnits="userSpaceOnUse" color-interpolation-filters="sRGB">
<feFlood flood-opacity="0" result="BackgroundImageFix"/>
<feColorMatrix in="SourceAlpha" type="matrix" values="0 0 0 0 0 0 0 0 0 0 0 0 0 0 0 0 0 0 127 0" result="hardAlpha"/>
<feOffset dy="4"/>
<feGaussianBlur stdDeviation="2"/>
<feComposite in2="hardAlpha" operator="out"/>
<feColorMatrix type="matrix" values="0 0 0 0 0 0 0 0 0 0 0 0 0 0 0 0 0 0 0.25 0"/>
<feBlend mode="normal" in2="BackgroundImageFix" result="effect1_dropShadow_0_1"/>
<feBlend mode="normal" in="SourceGraphic" in2="effect1_dropShadow_0_1" result="shape"/>
</filter>
</defs>
</svg>
