<svg width="91" height="84" viewBox="0 0 91 84" fill="none" xmlns="http://www.w3.org/2000/svg">
<path d="M86.6449 31.435C96.0295 44.9728 89.7484 65.5752 72.6158 77.4518C55.4832 89.3284 44.4794 80.7081 35.0948 67.1704C25.7103 53.6326 -12.6638 15.3809 4.46884 3.50429C21.6014 -8.37231 77.2603 17.8973 86.6449 31.435Z" fill="#BC2ABF"/>
<path d="M86.2339 31.7199C95.4023 44.9458 89.3321 65.2554 72.331 77.0409C63.8606 82.9127 57.0009 83.662 51.1313 81.3756C45.2124 79.07 40.1871 73.6386 35.5057 66.8855C33.5813 64.1094 30.4492 60.305 26.8456 55.9279C26.0278 54.9345 25.1857 53.9116 24.3279 52.8646C19.6792 47.1902 14.5506 40.7835 10.2519 34.4341C5.94686 28.0752 2.50531 21.818 1.19236 16.4402C0.536946 13.7557 0.420373 11.3231 0.964987 9.21991C1.50634 7.12936 2.70845 5.333 4.7537 3.91521C8.87729 1.05667 15.4072 0.449653 23.1529 1.45016C30.8726 2.44731 39.6878 5.02614 48.2794 8.40459C56.8685 11.7821 65.2145 15.9509 71.9933 20.1155C78.7919 24.2923 83.9514 28.4272 86.2339 31.7199Z" stroke="black" stroke-opacity="0.62"/>
</svg>
